<?xml version="1.0" encoding="UTF-8" standalone="no"?>
<!-- Created with Inkscape (http://www.inkscape.org/) -->

<svg
  version="1.1"
  id="svg1"
  width="729"
  height="599.74139"
  viewBox="0 0 729 599.74139"
  xml:space="preserve"
  xmlns="http://www.w3.org/2000/svg"
  xmlns:svg="http://www.w3.org/2000/svg"><defs
     id="defs1" />
     <g
     id="g1"
     transform="translate(-139.43192,-232.1003)">
     <path
       style="fill:#000000"
       d="m 493.43192,831.08466 c -3.56698,-1.5061 -7.87259,-5.8371 -10.09158,-10.151 -5.08108,-9.8782 0.33985,-24.9231 10.34158,-28.7015 l 2.75,-1.0389 v -31.13705 -31.13709 l -20.5,-20.96797 c -11.275,-11.53238 -20.5,-21.36558 -20.5,-21.85154 0,-0.48596 -1.9125,-2.66753 -4.25,-4.84793 -3.82327,-3.56631 -4.25,-4.43162 -4.25,-8.61815 0,-3.99271 0.46391,-5.06829 3.26578,-7.57176 6.78083,-6.05867 17.23422,-1.52097 17.23422,7.4812 0,3.64064 -4.1433,8.92367 -7.82709,9.98017 l -3.29087,0.94381 21.55898,21.64042 21.55898,21.64042 v 31.76755 31.76752 l 2.25,-0.3195 2.25,-0.3196 0.5,-33.72347 c 0.47583,-32.09343 0.59667,-33.81334 2.5,-35.58183 17.93997,-16.66901 38.5,-36.58075 38.5,-37.28604 0,-0.49974 -0.64047,-0.90862 -1.42327,-0.90862 -0.78281,0 -2.80781,-1.165 -4.5,-2.58889 -2.59835,-2.18637 -3.07673,-3.29029 -3.07673,-7.1 0,-3.79695 0.53826,-5.04937 3.4,-7.91111 3.77253,-3.77253 6.96404,-4.29735 11.58896,-1.90571 3.92254,2.02842 6.01104,5.27559 6.01104,9.34586 0,2.60848 -0.89641,4.29156 -3.8688,7.26394 -3.16095,3.16095 -3.61835,4.07664 -2.5,5.0048 0.75284,0.6248 1.35458,1.8684 1.3372,2.76355 -0.0236,1.21394 -0.63705,0.93993 -2.41398,-1.0782 l -2.38238,-2.70576 -1.66644,2.70576 c -0.91654,1.48817 -9.92064,10.80576 -20.00911,20.70576 l -18.34267,18 -0.66598,33.09179 -0.66597,33.09177 3.0394,1.259 c 4.02841,1.6686 9.39977,6.9804 11.46976,11.3426 3.8293,8.0696 0.42192,19.5715 -7.43754,25.1059 -3.31472,2.3342 -5.38559,2.9599 -10.74958,3.2483 -3.65415,0.1964 -7.76891,-0.1179 -9.14391,-0.6985 z M 461.79706,678.07122 c 5.52892,-4.34905 2.30051,-12.92742 -4.86514,-12.92742 -4.2968,0 -7.5,2.91521 -7.5,6.82569 0,3.92113 3.47712,6.99511 9.11514,8.05831 0.33833,0.0638 1.80083,-0.81666 3.25,-1.95658 z m -6.86514,-4.92742 c 0.33992,-0.55 1.71648,-1 3.05902,-1 1.34254,0 2.44098,0.45 2.44098,1 0,0.55 -1.37656,1 -3.05902,1 -1.7847,0 -2.80156,-0.41658 -2.44098,-1 z m 97.17667,3.75 c 3.02208,-3.35736 3.47437,-5.55725 1.8059,-8.7837 -2.92818,-5.66249 -8.09902,-6.5037 -12.55949,-2.04322 -3.60723,3.60722 -3.77099,7.31992 -0.46853,10.62237 3.22289,3.2229 8.41994,3.31763 11.22212,0.20455 z m -8.15153,-4.70932 c -0.93642,-1.51516 0.30522,-3.04068 2.47486,-3.04068 1.71304,0 3.69371,1.69725 2.85014,2.4423 -1.20672,1.06578 -4.78745,1.46815 -5.325,0.59838 z M 307.62162,787.84576 c -6.30304,-6.7093 -2.01387,-17.702 6.90704,-17.702 2.32414,0 4.04569,0.9316 6.46803,3.5 l 3.30093,3.5 h 70.06715 70.06715 v -17.09223 c 0,-15.57808 -0.17718,-17.31752 -2,-19.63486 -2.60011,-3.3055 -2.5225,-4.43338 0.50049,-7.27333 2.41335,-2.26722 2.44181,-2.43885 0.8166,-4.92432 -0.92615,-1.41637 -2.16387,-3.02873 -2.75049,-3.58303 -0.58663,-0.55429 -5.85637,-5.64003 -11.71054,-11.30164 l -10.64394,-10.29384 -89.8183,0.0767 c -88.00711,0.0752 -89.86069,0.11654 -91.92051,2.05164 -2.70327,2.53959 -7.01947,2.52784 -9.20534,-0.0251 -1.48237,-1.73128 -2.94994,-2 -10.92282,-2 -8.66444,0 -9.25446,0.13337 -9.95419,2.25 l -0.74382,2.25 -0.61816,-2.4979 c -0.43712,-1.76633 -1.48373,-2.65778 -3.57357,-3.04379 l -2.95541,-0.54589 2.75,-0.72526 c 1.5125,-0.3989 2.75,-1.16669 2.75,-1.70621 0,-0.53952 0.675,-0.98095 1.5,-0.98095 0.825,0 1.5,0.45 1.5,1 0,1.72249 18.87761,1.26525 20.64286,-0.5 0.825,-0.825 2.76275,-1.5 4.30612,-1.5 1.54337,0 3.36633,0.675 4.05102,1.5 1.0895,1.31276 12.34886,1.5 90.20104,1.5 h 88.95614 l -13.2634,-14 c -11.00537,-11.61656 -13.74815,-14 -16.11071,-14 -10.53013,0 -18.40926,-10.97652 -14.1362,-19.69332 6.72802,-13.72478 25.43402,-9.06123 25.31549,6.31135 l -0.0376,4.88197 37.18988,36.76442 c 20.45444,20.22043 36.90863,37.04569 36.56486,37.38945 -1.43647,1.43647 -12.58706,-8.79566 -52.47628,-48.15387 -12.26325,-12.1 -22.87963,-22.1318 -23.59196,-22.29289 -0.71233,-0.16109 -1.89055,0.42454 -2.61827,1.30139 -1.52913,1.84248 -2.92184,0.27207 31.50336,35.52293 26.03161,26.65596 28.93433,30.11663 28.08834,33.48734 -0.33455,1.33292 -1.50295,2.90232 -2.59646,3.48755 -1.877,1.00457 -1.98823,2.1251 -1.98823,20.02891 v 18.96478 h -71.52144 -71.52144 l -1.1694,2.75 c -2.22338,5.2286 -4.813,7.25 -9.28772,7.25 -3.03789,0 -4.73044,-0.6164 -6.3103,-2.298 z m 309.2103,-1.102 c -1.87,-1.87 -3.4,-4.12 -3.4,-5 0,-1.4393 -3.91667,-1.6 -39,-1.6 h -39 v -17.80568 c 0,-17.42249 -0.0538,-17.87865 -2.5,-21.19428 -1.375,-1.86371 -2.5,-4.18115 -2.5,-5.14987 0,-3.30849 5.02924,-9.16937 27.2614,-31.76933 12.23123,-12.43359 24.47449,-25.23942 27.20725,-28.4574 l 4.96864,-5.85088 -2.30956,-1.87017 -2.30956,-1.87017 -20.65908,20.29375 c -11.3625,11.16156 -25.38409,24.70216 -31.15909,30.09021 -16.81708,15.69029 -16,14.53983 -16,22.52821 0,6.61746 -1.36412,10.05565 -3.98964,10.05565 -0.46573,0 -1.67109,0.29262 -2.67857,0.65028 -1.21729,0.43213 -0.74153,-0.50637 1.41821,-2.79761 3.01562,-3.19923 3.25213,-3.94927 3.27958,-10.40028 l 0.0296,-6.95239 33.47042,-32.40878 33.47042,-32.40879 v -4.37333 c 0,-9.10437 5.79873,-16.3091 13.12639,-16.3091 8.21039,0 13.86613,5.71034 13.86613,14 0,8.12536 -5.83427,14 -13.90379,14 -2.32885,0 -4.12876,1.23474 -8.28212,5.68152 -2.91863,3.12483 -8.7923,9.31233 -13.05259,13.75 l -7.74599,8.06848 95.08159,0.25506 95.0816,0.25507 1.72482,-2.13007 c 2.30891,-2.85138 6.94169,-2.79868 9.29353,0.10572 0.99574,1.22969 1.81043,2.83976 1.81043,3.57795 0,2.82214 -2.43932,6.50843 -4.67872,7.07048 -2.70479,0.67886 -7.32128,-1.93635 -7.32128,-4.14744 0,-1.27763 -12.52854,-1.50068 -96.99931,-1.72695 l -96.99933,-0.25982 -13.23144,13.19226 c -13.01988,12.98131 -14.97718,15.30774 -12.87895,15.30774 0.58171,0 1.76722,1.37215 2.63447,3.04923 1.4581,2.81966 1.43995,3.29019 -0.24115,6.25 -1.59979,2.81663 -1.77787,5.21103 -1.48384,19.95077 l 0.33413,16.74996 h 37.21001 37.21002 l 2.63246,-3 c 4.24709,-4.84 11.62656,-3.9916 14.64957,1.6843 2.07612,3.8981 1.40774,8.2252 -1.75974,11.3927 -3.95573,3.9557 -7.38429,3.8157 -11.67692,-0.477 z m -469.74501,-79.4287 c -3.48971,-3.85609 -1.1024,-10.17126 3.84501,-10.17126 3.15551,0 5.5,2.52201 5.5,5.91644 0,5.25253 -5.97864,7.97462 -9.34501,4.25482 z m 374.34501,-86.22305 c -21.81552,-5.64778 -39.30804,-20.93881 -48.22095,-42.15218 -7.72254,-18.38019 -7.69314,-40.6977 0.0755,-57.29886 7.08237,-15.13467 18.89788,-27.26437 33.64547,-34.54013 11.60642,-5.72606 18.83789,-7.33298 33,-7.33298 14.18221,0 21.42001,1.61215 33,7.35042 33.89371,16.79548 48.24937,57.79638 32.74613,93.52552 -8.47178,19.52426 -28.19546,36.26577 -48.24613,40.95144 -9.30179,2.17375 -26.59337,1.93204 -36,-0.50323 z m 36.28499,-31.76775 c 16.42792,-8.08743 26.03184,-26.48277 22.84788,-43.76277 -1.76106,-9.55758 -5.338,-16.73283 -11.62988,-23.32921 -7.46715,-7.82852 -15.07369,-11.29359 -26.09435,-11.88697 -17.88713,-0.96309 -31.88175,6.9317 -40.41351,22.79849 -3.41408,6.34927 -3.49513,6.76668 -3.49513,18 0,10.40025 0.25781,12.05013 2.69589,17.25264 2.88688,6.16022 11.03048,15.48808 16.44111,18.83203 7.45553,4.60777 13.29374,5.99365 23.57948,5.5973 8.42887,-0.3248 10.55825,-0.78881 16.06851,-3.50151 z m -417.61832,29.15287 c -0.36667,-0.36666 -0.66667,-7.0574 -0.66667,-14.8683 V 589.4072 l 7.27856,-11.3817 c 4.0032,-6.25994 9.0657,-13.91065 11.25,-17.0016 l 3.97144,-5.6199 17.32255,-0.72421 c 9.52741,-0.39832 17.57225,-0.47452 17.87744,-0.16933 0.51498,0.51497 -15.55695,26.01871 -19.93467,31.63334 l -1.94926,2.5 24.34197,0.5 24.34197,0.5 0.27657,14.10477 0.27657,14.10476 -6.17326,0.64524 c -8.16734,0.85365 -77.35708,0.83469 -78.21321,-0.0214 z m 99,0 c -0.36667,-0.36666 -0.66667,-31.41666 -0.66667,-69 V 481.1438 h 41.5 41.5 v 11.875 c 0,6.53125 -0.27975,13.27376 -0.62167,14.98336 l -0.62168,3.10837 -25.62832,0.26663 -25.62833,0.26664 -0.28078,12.25 -0.28078,12.25 h 17.92379 c 15.42166,0 18.00853,0.22081 18.53078,1.58179 0.33385,0.86998 0.60699,7.15983 0.60699,13.97744 v 12.39565 l -18.25,0.27256 -18.25,0.27256 -0.28064,12.23306 -0.28065,12.23305 25.78065,0.26695 25.78064,0.26694 0.27657,14.10477 0.27657,14.10476 -6.17326,0.64524 c -8.1657,0.85348 -74.35716,0.83462 -75.21321,-0.0214 z m 96.33333,-68.33333 v -69 h 15.63976 c 13.69806,0 15.81257,0.21726 17.03173,1.75 1.66395,2.09191 41.59866,62.02322 49.64244,74.5 3.10262,4.8125 5.94631,8.75 6.31932,8.75 0.373,0 0.35774,-19.125 -0.0339,-42.5 l -0.7121,-42.5 h 15.56327 15.56327 l -0.2569,68.75 -0.25689,68.75 h -14.47617 -14.47616 l -6.6043,-9.5 c -3.63236,-5.225 -11.99688,-17.375 -18.58782,-27 -6.59094,-9.625 -16.90473,-24.64343 -22.91954,-33.37429 l -10.93601,-15.87428 -0.26062,43.12428 -0.26063,43.12429 H 350.4213 335.43192 Z m 330.10169,64.28577 c -2.96365,-6.08307 -16.49551,-36.54162 -24.33975,-54.78577 -3.31069,-7.7 -8.94093,-20.3 -12.51166,-28 -7.46652,-16.10097 -21.25028,-48.27574 -21.25028,-49.6035 0,-0.49307 5.0625,-0.99342 11.25,-1.11189 15.60192,-0.2987 18.90516,-0.0676 20.32132,1.42165 1.09452,1.15101 6.55819,13.55374 30.20707,68.57111 3.61178,8.40255 6.86733,14.92755 7.23454,14.5 0.36721,-0.42756 2.0879,-4.15237 3.82376,-8.27737 1.73585,-4.125 9.64754,-22.8 17.58153,-41.5 l 14.42544,-34 16.07817,-0.27477 c 10.47025,-0.17893 16.07817,0.082 16.07817,0.74804 0,1.76321 -17.17572,41.31689 -39.96152,92.02673 -7.04335,15.675 -14.34302,32.1 -16.22149,36.5 l -3.41539,8 -8.48415,0.28577 -8.48416,0.28578 z m 57.56162,3.96423 c -0.59678,-0.98431 3.16947,-10.39154 16.31455,-40.75 5.95368,-13.75 17.68868,-41.09975 26.07777,-60.77722 l 15.25289,-35.77721 13.59574,0.27721 13.59574,0.27722 6.57306,13.09288 c 3.61519,7.20108 10.32392,21.60108 14.9083,32 4.58438,10.39892 12.03049,27.23212 16.54691,37.40712 13.37841,30.14008 22.47173,51.76278 22.47173,53.43477 0,1.35228 -2.08692,1.56523 -15.33948,1.56523 h -15.33949 l -1.2834,-2.75 c -0.70587,-1.5125 -3.07392,-7.025 -5.26233,-12.25 -7.73559,-18.46936 -14.15139,-32.50953 -15.2068,-33.2782 -1.3797,-1.00486 -9.36326,0.10679 -12.4746,1.73699 -1.38582,0.7261 -3.09448,3.12083 -4.02598,5.64251 -2.37891,6.43998 -4.56622,6.282 -7.58675,-0.54796 -2.82609,-6.39029 -5.23877,-7.81815 -12.42009,-7.35042 -5.47353,0.35651 -4.74884,-0.84622 -16.0933,26.70914 -4.39554,10.67663 -8.49156,20.01413 -9.10228,20.75 -0.83582,1.00711 -4.77459,1.33794 -15.92893,1.33794 -8.15019,0 -15.02316,-0.3375 -15.27326,-0.75 z m 66.42922,-54.5 c 1.17324,-2.3375 2.95869,-5.15378 3.96767,-6.2584 1.57917,-1.72888 1.87661,-4.1299 2.13714,-17.2515 0.16647,-8.3837 0.0499,-15.24242 -0.25898,-15.2416 -0.30891,8.3e-4 -4.5005,9.114 -9.31465,20.2515 -4.81415,11.1375 -8.99705,20.8125 -9.29534,21.5 -0.39724,0.91555 0.9524,1.25 5.04432,1.25 5.57126,0 5.59254,-0.0117 7.71984,-4.25 z m 25.90747,3.74104 c 0,-0.61909 -17.05518,-38.83039 -17.57746,-39.38145 -0.20351,-0.21472 -0.36365,5.842 -0.35587,13.45937 0.0137,13.45059 0.1034,14.03108 3.11101,20.14041 l 3.09687,6.29063 h 5.86273 c 3.22449,0 5.86272,-0.22903 5.86272,-0.50896 z m -651,-16.15933 c 0,-0.37082 0.61053,-1.38466 1.35673,-2.25297 1.82628,-2.12512 23.64327,-36.70188 23.64327,-37.47114 0,-0.33418 -10.9846,-0.6076 -24.41023,-0.6076 h -24.41023 l -0.70727,-8.49065 c -0.389,-4.66986 -0.39357,-11.41986 -0.0102,-15 l 0.69712,-6.50935 h 41.9877 41.98771 l -0.3173,16.25 -0.3173,16.25 -11.33724,18 c -6.23547,9.9 -11.63547,18.28002 -12,18.62226 -0.91961,0.86342 -36.16276,2.04211 -36.16276,1.20945 z m 233.3736,-89.31715 c -3.08245,-1.24473 -6.49688,-6.51477 -7.09107,-10.94479 -0.73976,-5.51535 1.28047,-10.53987 5.78971,-14.39961 l 3.92776,-3.36202 V 414.29787 395.1438 h -57.39301 c -50.2398,0 -57.46517,0.18803 -57.97194,1.50865 -0.3184,0.82976 -1.69812,2.01859 -3.06602,2.64185 -5.56877,2.5373 -10.33125,-5.34075 -5.74029,-9.49551 2.47918,-2.24362 6.47236,-2.08474 8.67126,0.34501 1.77058,1.95647 3.07997,2 60.15499,2 h 58.34501 v 20.5 c 0,19.83115 0.0652,20.5 1.99936,20.5 2.08722,0 6.58329,-4.08813 43.00064,-39.09914 11.825,-11.36834 23.9518,-22.85923 26.94844,-25.53529 2.99665,-2.67606 8.80589,-7.90307 12.90944,-11.61557 4.10354,-3.7125 7.83924,-6.75 8.30155,-6.75 0.46231,0 0.84057,-17.31585 0.84057,-38.47968 v -38.47967 l -3.90547,-1.99243 c -11.80869,-6.02434 -14.83523,-23.19216 -5.7968,-32.88189 6.64235,-7.12099 19.20796,-8.32542 26.41508,-2.53191 12.66989,10.1848 11.16232,28.23984 -2.96281,35.48322 l -3.75,1.92301 v 37.40863 37.40864 l 11.23236,10.32104 c 6.17779,5.67657 21.59029,20.48359 34.25,32.90448 33.45401,32.82293 42.55402,41.41656 43.85704,41.41656 0.83368,0 1.23685,-5.70405 1.43131,-20.25 l 0.2707,-20.25 h 127.32431 c 126.05431,0 127.34236,-0.0199 129.13428,-2 2.18311,-2.41231 7.69867,-2.67047 9.54422,-0.44672 0.70901,0.85431 1.28911,2.94301 1.28911,4.64155 0,5.79641 -6.4742,7.75521 -10.92424,3.30517 l -2.5,-2.5 H 726.88647 601.43192 v 19.4433 c 0,17.47582 0.17988,19.57552 1.77763,20.75 4.19743,3.08546 6.22237,7.01453 6.22237,12.07352 0,11.25923 -9.81496,17.76201 -19.71693,13.06322 -5.30607,-2.5179 -7.4809,-6.67293 -6.97723,-13.33004 0.22886,-3.025 0.71662,-6.19576 1.08389,-7.04613 0.48365,-1.11979 -3.81636,-5.6695 -15.59441,-16.5 -8.9442,-8.22463 -23.24464,-21.75794 -31.77875,-30.07403 -25.62753,-24.97281 -27.4915,-26.37984 -34.94681,-26.37984 -4.7844,0 -5.48553,0.54522 -27.06976,21.05017 -20.06043,19.05736 -50.17772,46.50146 -54.28143,49.46346 -2.59079,1.86999 -2.70236,2.23442 -1.62782,5.31684 0.63448,1.82009 0.91811,5.39855 0.63029,7.95214 -0.42862,3.80265 -1.2581,5.32827 -4.58346,8.43014 -3.66932,3.4227 -4.56921,3.78115 -9.34886,3.72386 -2.90879,-0.0349 -6.2456,-0.44978 -7.41512,-0.92205 z m 28.23829,-33.26456 c 33.15169,-30.56976 42.97127,-39.70954 52.38811,-48.76135 5.775,-5.55113 12.4125,-11.49578 14.75,-13.21033 4.09928,-3.0068 4.25,-3.31074 4.25,-8.57028 0,-5.04203 -0.13187,-5.35098 -1.75,-4.09992 -3.6629,2.83195 -24.57374,22.16021 -45.25,41.82537 -35.30716,33.58059 -39,37.15962 -39,37.79801 0,0.84401 3.16521,4.2685 3.94531,4.2685 0.34943,0 5.14939,-4.1625 10.66658,-9.25 z m 163.40942,6.43383 2.24288,-1.81618 -18.85484,-18.43382 C 547.30093,390.10759 523.45014,366.97869 514.68192,358.6786 l -7.25,-6.86292 0.0575,5.91406 0.0575,5.91406 6.20422,4.78096 c 3.41233,2.62953 21.04895,19.13615 39.1925,36.68138 18.14355,17.54524 33.27592,31.93131 33.62749,31.96905 0.35156,0.0377 1.64851,-0.74867 2.88209,-1.74756 z m -84.59324,-77.25081 c 0.37752,-3.33684 0.60393,-23.75559 0.50312,-45.375 l -0.18327,-39.30802 h -2.37396 -2.37396 v 45.375 c 0,43.66407 0.0705,45.375 1.87083,45.375 1.54678,0 1.98973,-1.05089 2.55724,-6.06698 z m -54.50499,79.1439 c -4.82413,-4.82412 -3.55969,-12.28428 2.74222,-16.17908 1.82703,-1.12917 4.67861,-3.93062 6.33683,-6.22544 4.7558,-6.58158 36.50162,-36.56711 40.46857,-38.2246 2.94374,-1.22998 3.98622,-1.2684 5.95349,-0.21944 3.63127,1.93624 43.57581,40.78019 43.57581,42.37517 0,0.76806 0.83429,1.39647 1.85398,1.39647 2.39347,0 6.87899,4.16745 8.18622,7.60573 1.34593,3.54006 -0.35614,8.71604 -3.55554,10.81236 -3.9382,2.58041 -10.73063,2.06321 -13.8483,-1.05445 -3.88825,-3.88826 -3.714,-10.07273 0.39704,-14.09204 2.53398,-2.47743 2.88248,-3.36264 2.11675,-5.37667 -0.50415,-1.32603 -8.83168,-9.92212 -18.50562,-19.10242 -21.50051,-20.4034 -23.71573,-21.27423 -33.14453,-13.02944 -8.054,7.04263 -32.49919,31.63831 -32.47222,32.67213 0.0153,0.58564 1.34057,2.35259 2.94509,3.92656 4.00393,3.92768 4.62438,7.54721 2.13139,12.43388 -2.23647,4.38384 -3.61804,5.20436 -8.76297,5.20436 -2.52971,0 -4.30255,-0.80741 -6.41821,-2.92308 z m 11.44206,-1.1495 c 5.21632,-4.10316 2.31838,-13.26075 -4.1964,-13.26075 -3.32443,0 -6.68455,2.33875 -7.39632,5.14809 -0.75169,2.96686 1.13069,7.8338 3.46513,8.95919 3.38843,1.6335 5.21684,1.44306 8.12759,-0.84653 z m -7.36514,-4.42742 c -0.99319,-1.19672 -0.99319,-1.80328 0,-3 1.60863,-1.93828 3.45466,-1.90248 5.46309,0.10595 1.23992,1.23992 1.34225,1.92367 0.44898,3 -1.51622,1.82693 -4.35007,1.77614 -5.91207,-0.10595 z m 3.5,-1.5 c 0.33992,-0.55 0.14148,-1 -0.44098,-1 -0.58246,0 -1.05902,0.45 -1.05902,1 0,0.55 0.19844,1 0.44098,1 0.24254,0 0.7191,-0.45 1.05902,-1 z m 97.75,4.91499 c 3.80067,-4.64019 0.32798,-11.91499 -5.68772,-11.91499 -6.52343,0 -10.38405,5.72748 -7.49691,11.12215 2.20858,4.12676 10.06684,4.5993 13.18463,0.79284 z m -7.9028,-3.42256 c -1.72721,-1.28119 -1.73856,-1.48048 -0.17474,-3.06806 2.02298,-2.0537 4.82754,-1.21873 4.82754,1.43726 0,2.52995 -2.33656,3.34892 -4.6528,1.6308 z M 463.67675,366.8938 c -2.27033,-2.83776 -2.38393,-5.65047 -0.30026,-7.43457 1.96224,-1.68012 2.05543,-2.79264 2.05543,-24.53767 V 312.1438 h -70.98658 -70.98658 l -1.40779,3.36931 c -4.43927,10.62467 -19.61905,7.63088 -19.61905,-3.86931 0,-5.99493 4.68192,-10.5 10.91219,-10.5 3.22529,0 7.67311,3.11804 8.59609,6.02609 0.61614,1.94128 1.82382,1.97391 73.05911,1.97391 h 72.43261 v 23.54775 23.54775 l 2.5,2.31692 c 2.69518,2.49781 3.09789,4.60189 1.46482,7.65332 -1.18535,2.21485 -6.14383,2.65434 -7.71999,0.68426 z m 69.75517,-0.75 c -2.63198,-2.63198 -2.52282,-4.1602 0.5,-7 l 2.5,-2.34863 V 332.96949 309.1438 h 72 c 43.34447,0 72,-0.36746 72,-0.92327 0,-0.50781 1.165,-2.30781 2.58889,-4 2.18275,-2.59405 3.29299,-3.07673 7.07693,-3.07673 6.33342,0 10.33418,3.98297 10.33418,10.28822 0,11.50685 -12.45408,14.43563 -18.9169,4.44861 l -2.41818,-3.73683 h -70.33246 -70.33246 v 22.44098 c 0,14.75117 0.36381,22.66583 1.06168,23.09714 2.29846,1.42053 3.05022,5.64215 1.44184,8.09686 -1.89438,2.89118 -4.83434,3.0342 -7.50352,0.36502 z"
       id="path1" />
      </g>
    </svg>